<mxfile host="Electron" agent="Mozilla/5.0 (Macintosh; Intel Mac OS X 10_15_7) AppleWebKit/537.36 (KHTML, like Gecko) draw.io/24.7.17 Chrome/128.0.6613.36 Electron/32.0.1 Safari/537.36" version="24.7.17">
  <diagram name="第 1 页" id="dykCiLa8a4DSkGjc4B6P">
    <mxGraphModel dx="957" dy="981" grid="1" gridSize="10" guides="1" tooltips="1" connect="1" arrows="1" fold="1" page="1" pageScale="1" pageWidth="1169" pageHeight="827" math="0" shadow="0">
      <root>
        <mxCell id="0" />
        <mxCell id="1" parent="0" />
        <mxCell id="r3daFhoa3uB-04EZrC0p-14" value="" style="edgeStyle=orthogonalEdgeStyle;rounded=0;orthogonalLoop=1;jettySize=auto;html=1;strokeWidth=2;" edge="1" parent="1" source="r3daFhoa3uB-04EZrC0p-2" target="r3daFhoa3uB-04EZrC0p-4">
          <mxGeometry relative="1" as="geometry" />
        </mxCell>
        <mxCell id="r3daFhoa3uB-04EZrC0p-2" value="" style="image;points=[];aspect=fixed;html=1;align=center;shadow=0;dashed=0;image=img/lib/allied_telesis/computer_and_terminals/Personal_Computer_with_Server.svg;" vertex="1" parent="1">
          <mxGeometry x="228.8" y="414" width="62.400000000000006" height="62.400000000000006" as="geometry" />
        </mxCell>
        <mxCell id="r3daFhoa3uB-04EZrC0p-17" value="" style="edgeStyle=orthogonalEdgeStyle;rounded=0;orthogonalLoop=1;jettySize=auto;html=1;strokeWidth=2;" edge="1" parent="1" source="r3daFhoa3uB-04EZrC0p-4" target="r3daFhoa3uB-04EZrC0p-6">
          <mxGeometry relative="1" as="geometry" />
        </mxCell>
        <mxCell id="r3daFhoa3uB-04EZrC0p-4" value="按下登录按钮" style="rounded=0;whiteSpace=wrap;html=1;strokeWidth=2;" vertex="1" parent="1">
          <mxGeometry x="220" y="311.2" width="80" height="40" as="geometry" />
        </mxCell>
        <mxCell id="r3daFhoa3uB-04EZrC0p-18" value="" style="edgeStyle=orthogonalEdgeStyle;rounded=0;orthogonalLoop=1;jettySize=auto;html=1;strokeWidth=2;" edge="1" parent="1" source="r3daFhoa3uB-04EZrC0p-6" target="r3daFhoa3uB-04EZrC0p-7">
          <mxGeometry relative="1" as="geometry" />
        </mxCell>
        <mxCell id="r3daFhoa3uB-04EZrC0p-6" value="提取 ui 内容" style="rounded=0;whiteSpace=wrap;html=1;strokeWidth=2;" vertex="1" parent="1">
          <mxGeometry x="351.2" y="311.2" width="80" height="40" as="geometry" />
        </mxCell>
        <mxCell id="r3daFhoa3uB-04EZrC0p-11" style="edgeStyle=orthogonalEdgeStyle;rounded=0;orthogonalLoop=1;jettySize=auto;html=1;exitX=0.5;exitY=0;exitDx=0;exitDy=0;strokeWidth=2;" edge="1" parent="1" source="r3daFhoa3uB-04EZrC0p-7" target="r3daFhoa3uB-04EZrC0p-10">
          <mxGeometry relative="1" as="geometry">
            <mxPoint x="600" y="210" as="targetPoint" />
            <Array as="points">
              <mxPoint x="526" y="270" />
            </Array>
          </mxGeometry>
        </mxCell>
        <mxCell id="r3daFhoa3uB-04EZrC0p-28" style="edgeStyle=orthogonalEdgeStyle;rounded=0;orthogonalLoop=1;jettySize=auto;html=1;exitX=0.5;exitY=1;exitDx=0;exitDy=0;entryX=1;entryY=0.5;entryDx=0;entryDy=0;strokeWidth=2;" edge="1" parent="1" source="r3daFhoa3uB-04EZrC0p-7" target="r3daFhoa3uB-04EZrC0p-27">
          <mxGeometry relative="1" as="geometry" />
        </mxCell>
        <mxCell id="r3daFhoa3uB-04EZrC0p-7" value="验证内容" style="rounded=0;whiteSpace=wrap;html=1;strokeWidth=2;" vertex="1" parent="1">
          <mxGeometry x="486.2" y="311.2" width="80" height="40" as="geometry" />
        </mxCell>
        <mxCell id="r3daFhoa3uB-04EZrC0p-21" value="" style="edgeStyle=orthogonalEdgeStyle;rounded=0;orthogonalLoop=1;jettySize=auto;html=1;strokeWidth=2;" edge="1" parent="1" source="r3daFhoa3uB-04EZrC0p-8" target="r3daFhoa3uB-04EZrC0p-12">
          <mxGeometry relative="1" as="geometry" />
        </mxCell>
        <mxCell id="r3daFhoa3uB-04EZrC0p-8" value="接收回传数据" style="rounded=0;whiteSpace=wrap;html=1;strokeWidth=2;" vertex="1" parent="1">
          <mxGeometry x="710" y="311.2" width="80" height="40" as="geometry" />
        </mxCell>
        <mxCell id="r3daFhoa3uB-04EZrC0p-19" style="edgeStyle=orthogonalEdgeStyle;rounded=0;orthogonalLoop=1;jettySize=auto;html=1;entryX=0.5;entryY=0;entryDx=0;entryDy=0;strokeWidth=2;" edge="1" parent="1" source="r3daFhoa3uB-04EZrC0p-10" target="r3daFhoa3uB-04EZrC0p-8">
          <mxGeometry relative="1" as="geometry">
            <Array as="points">
              <mxPoint x="750" y="270" />
            </Array>
          </mxGeometry>
        </mxCell>
        <mxCell id="r3daFhoa3uB-04EZrC0p-10" value="" style="sketch=0;pointerEvents=1;shadow=0;dashed=0;html=1;strokeColor=none;fillColor=#505050;labelPosition=center;verticalLabelPosition=bottom;verticalAlign=top;outlineConnect=0;align=center;shape=mxgraph.office.servers.cluster_server;" vertex="1" parent="1">
          <mxGeometry x="605" y="240" width="75" height="69" as="geometry" />
        </mxCell>
        <mxCell id="r3daFhoa3uB-04EZrC0p-25" value="" style="edgeStyle=orthogonalEdgeStyle;rounded=0;orthogonalLoop=1;jettySize=auto;html=1;strokeWidth=2;" edge="1" parent="1" source="r3daFhoa3uB-04EZrC0p-12" target="r3daFhoa3uB-04EZrC0p-24">
          <mxGeometry relative="1" as="geometry" />
        </mxCell>
        <mxCell id="r3daFhoa3uB-04EZrC0p-29" style="edgeStyle=orthogonalEdgeStyle;rounded=0;orthogonalLoop=1;jettySize=auto;html=1;exitX=0.25;exitY=0;exitDx=0;exitDy=0;entryX=1;entryY=0.5;entryDx=0;entryDy=0;strokeWidth=2;" edge="1" parent="1" source="r3daFhoa3uB-04EZrC0p-12" target="r3daFhoa3uB-04EZrC0p-27">
          <mxGeometry relative="1" as="geometry" />
        </mxCell>
        <mxCell id="r3daFhoa3uB-04EZrC0p-12" value="解析回传数据" style="rounded=0;whiteSpace=wrap;html=1;strokeWidth=2;" vertex="1" parent="1">
          <mxGeometry x="710" y="425.2" width="80" height="40" as="geometry" />
        </mxCell>
        <mxCell id="r3daFhoa3uB-04EZrC0p-23" value="" style="edgeStyle=orthogonalEdgeStyle;rounded=0;orthogonalLoop=1;jettySize=auto;html=1;strokeWidth=2;" edge="1" parent="1" source="r3daFhoa3uB-04EZrC0p-13" target="r3daFhoa3uB-04EZrC0p-15">
          <mxGeometry relative="1" as="geometry" />
        </mxCell>
        <mxCell id="r3daFhoa3uB-04EZrC0p-13" value="保存当前用户信息" style="rounded=0;whiteSpace=wrap;html=1;strokeWidth=2;" vertex="1" parent="1">
          <mxGeometry x="486.2" y="425.2" width="80" height="40" as="geometry" />
        </mxCell>
        <mxCell id="r3daFhoa3uB-04EZrC0p-16" value="" style="edgeStyle=orthogonalEdgeStyle;rounded=0;orthogonalLoop=1;jettySize=auto;html=1;strokeWidth=2;" edge="1" parent="1" source="r3daFhoa3uB-04EZrC0p-15" target="r3daFhoa3uB-04EZrC0p-2">
          <mxGeometry relative="1" as="geometry" />
        </mxCell>
        <mxCell id="r3daFhoa3uB-04EZrC0p-15" value="调用主窗口" style="rounded=0;whiteSpace=wrap;html=1;strokeWidth=2;" vertex="1" parent="1">
          <mxGeometry x="351.2" y="425.2" width="80" height="40" as="geometry" />
        </mxCell>
        <mxCell id="r3daFhoa3uB-04EZrC0p-26" value="" style="edgeStyle=orthogonalEdgeStyle;rounded=0;orthogonalLoop=1;jettySize=auto;html=1;strokeWidth=2;" edge="1" parent="1" source="r3daFhoa3uB-04EZrC0p-24" target="r3daFhoa3uB-04EZrC0p-13">
          <mxGeometry relative="1" as="geometry" />
        </mxCell>
        <mxCell id="r3daFhoa3uB-04EZrC0p-24" value="加密用户信息" style="rounded=0;whiteSpace=wrap;html=1;strokeWidth=2;" vertex="1" parent="1">
          <mxGeometry x="600" y="425.2" width="80" height="40" as="geometry" />
        </mxCell>
        <mxCell id="r3daFhoa3uB-04EZrC0p-27" value="提示用户错误" style="rounded=0;whiteSpace=wrap;html=1;strokeWidth=2;" vertex="1" parent="1">
          <mxGeometry x="420" y="370" width="80" height="40" as="geometry" />
        </mxCell>
        <mxCell id="r3daFhoa3uB-04EZrC0p-30" style="edgeStyle=orthogonalEdgeStyle;rounded=0;orthogonalLoop=1;jettySize=auto;html=1;exitX=0;exitY=0.5;exitDx=0;exitDy=0;entryX=0.984;entryY=0.511;entryDx=0;entryDy=0;entryPerimeter=0;strokeWidth=2;" edge="1" parent="1" source="r3daFhoa3uB-04EZrC0p-27" target="r3daFhoa3uB-04EZrC0p-2">
          <mxGeometry relative="1" as="geometry">
            <Array as="points">
              <mxPoint x="320" y="390" />
              <mxPoint x="320" y="446" />
            </Array>
          </mxGeometry>
        </mxCell>
      </root>
    </mxGraphModel>
  </diagram>
</mxfile>
